simulation
nRows=51
nColumns=15
endheader
time  TH_x TH_y TH_z SC_y  SC_z  SC_x  AC_y  AC_z  AC_x  GH_y  GH_z  GH_yy  EL_x  PS_y
0.000000  0.000000  0.000000  0.000000  -33.549747  2.860432  17.185101  64.446799  9.081563  -4.914209  44.457780  51.370664  -55.011230  24.456579  0.000000
0.046000  0.000000  0.000000  0.000000  -33.388832  2.951368  17.499444  64.889387  9.527091  -4.474137  45.022274  51.863603  -55.581160  25.031700  0.000000
0.092000  0.000000  0.000000  0.000000  -33.552560  2.925553  17.457200  65.172823  9.712667  -4.224366  45.632470  51.986990  -56.369202  25.499421  0.000000
0.138000  0.000000  0.000000  0.000000  -33.743096  2.845579  17.246575  65.264914  9.771123  -4.104960  46.196324  51.915562  -57.310308  25.731720  0.000000
0.184000  0.000000  0.000000  0.000000  -33.908122  2.777310  16.941567  65.234718  9.755806  -4.058237  46.767174  51.724677  -58.419479  25.806383  0.000000
0.230000  0.000000  0.000000  0.000000  -33.983297  2.716308  16.588750  65.123386  9.687160  -4.039052  47.375133  51.443944  -59.674693  25.771829  0.000000
0.276000  0.000000  0.000000  0.000000  -33.976550  2.678717  16.211274  64.985698  9.568541  -4.023833  48.046664  51.098170  -61.035952  25.679848  0.000000
0.322000  0.000000  0.000000  0.000000  -33.899844  2.649087  15.826895  64.848192  9.398584  -3.988988  48.784656  50.695684  -62.448636  25.566203  0.000000
0.368000  0.000000  0.000000  0.000000  -33.777073  2.628244  15.444919  64.744737  9.178254  -3.929258  49.585900  50.246869  -63.864120  25.461723  0.000000
0.414000  0.000000  0.000000  0.000000  -33.629118  2.602926  15.073336  64.692836  8.908792  -3.834841  50.443361  49.755720  -65.235757  25.387693  0.000000
0.460000  0.000000  0.000000  0.000000  -33.474004  2.567313  14.716745  64.710007  8.594592  -3.706766  51.346467  49.230294  -66.531000  25.361038  0.000000
0.506000  0.000000  0.000000  0.000000  -33.327158  2.514613  14.380715  64.803791  8.241884  -3.543609  52.284969  48.676234  -67.721817  25.390680  0.000000
0.552000  0.000000  0.000000  0.000000  -33.198991  2.439799  14.068328  64.976665  7.857973  -3.348478  53.246078  48.102206  -68.793867  25.482764  0.000000
0.598000  0.000000  0.000000  0.000000  -33.097492  2.342439  13.783273  65.226925  7.451801  -3.124940  54.218859  47.515953  -69.736964  25.636551  0.000000
0.644000  0.000000  0.000000  0.000000  -33.026411  2.221498  13.527208  65.546050  7.031038  -2.877293  55.190759  46.926591  -70.551419  25.849983  0.000000
0.690000  0.000000  0.000000  0.000000  -32.987313  2.080921  13.302554  65.924590  6.605082  -2.612267  56.150019  46.342507  -71.239530  26.115323  0.000000
0.736000  0.000000  0.000000  0.000000  -32.978838  1.924013  13.109772  66.346924  6.181723  -2.335562  57.083673  45.772343  -71.810189  26.424586  0.000000
0.782000  0.000000  0.000000  0.000000  -32.997773  1.757151  12.949783  66.798552  5.770157  -2.055346  57.979059  45.224072  -72.272554  26.765490  0.000000
0.828000  0.000000  0.000000  0.000000  -33.038852  1.586177  12.820534  67.261402  5.376354  -1.777509  58.824957  44.705271  -72.639476  27.126625  0.000000
0.874000  0.000000  0.000000  0.000000  -33.095968  1.417736  12.720844  67.720221  5.005974  -1.510776  59.611718  44.223397  -72.923656  27.493948  0.000000
0.920000  0.000000  0.000000  0.000000  -33.161919  1.258478  12.649235  68.156859  4.662976  -1.261559  60.329064  43.784217  -73.137383  27.854399  0.000000
0.966000  0.000000  0.000000  0.000000  -33.230292  1.114271  12.605029  68.556975  4.352226  -1.038112  60.966446  43.393349  -73.290158  28.193664  0.000000
1.012000  0.000000  0.000000  0.000000  -33.294058  0.991338  12.587101  68.905987  4.076496  -0.846304  61.514182  43.055148  -73.389968  28.499177  0.000000
1.058000  0.000000  0.000000  0.000000  -33.347494  0.893542  12.594861  69.193423  3.839172  -0.692730  61.963266  42.773216  -73.441540  28.758160  0.000000
1.104000  0.000000  0.000000  0.000000  -33.385274  0.825473  12.627172  69.409873  3.641830  -0.581214  62.305741  42.550357  -73.447180  28.960062  0.000000
1.150000  0.000000  0.000000  0.000000  -33.404106  0.788913  12.683389  69.550210  3.486964  -0.515488  62.534550  42.388438  -73.405413  29.094953  0.000000
1.196000  0.000000  0.000000  0.000000  -33.401598  0.786368  12.762243  69.610843  3.375205  -0.496233  62.643916  42.288774  -73.312027  29.155628  0.000000
1.242000  0.000000  0.000000  0.000000  -33.377510  0.817415  12.862743  69.592550  3.308170  -0.523909  62.629442  42.251706  -73.159354  29.136029  0.000000
1.288000  0.000000  0.000000  0.000000  -33.332762  0.882141  12.983239  69.497403  3.285453  -0.595646  62.488464  42.276893  -72.937591  29.033209  0.000000
1.334000  0.000000  0.000000  0.000000  -33.270389  0.977979  13.122295  69.332038  3.307795  -0.708724  62.219954  42.363304  -72.634284  28.845621  0.000000
1.380000  0.000000  0.000000  0.000000  -33.194516  1.102347  13.277980  69.103656  3.373707  -0.857035  61.825013  42.508891  -72.236139  28.575158  0.000000
1.426000  0.000000  0.000000  0.000000  -33.111129  1.250786  13.448691  68.824312  3.483081  -1.035382  61.306608  42.711378  -71.728521  28.225098  0.000000
1.472000  0.000000  0.000000  0.000000  -33.026842  1.417954  13.632553  68.505318  3.633332  -1.235415  60.669949  42.967102  -71.097891  27.802411  0.000000
1.518000  0.000000  0.000000  0.000000  -32.949528  1.598101  13.828093  68.162978  3.823630  -1.450497  59.922560  43.272611  -70.331180  27.315157  0.000000
1.564000  0.000000  0.000000  0.000000  -32.887053  1.783504  14.033455  67.810999  4.049734  -1.671143  59.074701  43.622881  -69.419338  26.775361  0.000000
1.610000  0.000000  0.000000  0.000000  -32.847179  1.967877  14.247088  67.467764  4.309503  -1.890735  58.139708  44.013032  -68.356156  26.195545  0.000000
1.656000  0.000000  0.000000  0.000000  -32.837042  2.142241  14.466754  67.146957  4.597215  -2.100141  57.133440  44.437103  -67.142911  25.592397  0.000000
1.702000  0.000000  0.000000  0.000000  -32.862654  2.301479  14.691117  66.865853  4.909417  -2.293666  56.075448  44.889050  -65.786079  24.982308  0.000000
1.748000  0.000000  0.000000  0.000000  -32.927691  2.437031  14.917212  66.635594  5.239913  -2.464550  54.986829  45.362388  -64.303051  24.385872  0.000000
1.794000  0.000000  0.000000  0.000000  -33.034435  2.546086  15.143136  66.468666  5.584085  -2.608157  53.894106  45.849929  -62.719210  23.822580  0.000000
1.840000  0.000000  0.000000  0.000000  -33.180149  2.623164  15.364311  66.371598  5.936747  -2.721738  52.824333  46.345440  -61.074361  23.316011  0.000000
1.886000  0.000000  0.000000  0.000000  -33.360092  2.667420  15.577619  66.348043  6.293342  -2.801645  51.810588  46.840250  -59.417697  22.887824  0.000000
1.932000  0.000000  0.000000  0.000000  -33.563227  2.679503  15.776048  66.398791  6.651096  -2.850725  50.884941  47.328490  -57.814532  22.563344  0.000000
1.978000  0.000000  0.000000  0.000000  -33.775440  2.658212  15.953989  66.513847  7.007485  -2.867169  50.082800  47.798518  -56.336605  22.365096  0.000000
2.024000  0.000000  0.000000  0.000000  -33.977235  2.611666  16.100868  66.686257  7.365566  -2.863266  49.434176  48.243530  -55.067757  22.317575  0.000000
2.070000  0.000000  0.000000  0.000000  -34.145412  2.533338  16.207983  66.887371  7.728567  -2.845053  48.958911  48.642866  -54.083609  22.438796  0.000000
2.116000  0.000000  0.000000  0.000000  -34.266743  2.436587  16.261021  67.094493  8.100843  -2.842097  48.658388  48.977454  -53.452045  22.743042  0.000000
2.162000  0.000000  0.000000  0.000000  -34.331256  2.307356  16.244955  67.245577  8.476451  -2.881134  48.494953  49.197445  -53.195459  23.219558  0.000000
2.208000  0.000000  0.000000  0.000000  -34.388162  2.163533  16.130836  67.281621  8.818424  -3.009664  48.405563  49.243483  -53.283864  23.829179  0.000000
2.254000  0.000000  0.000000  0.000000  -34.485842  1.986661  15.873954  67.103394  9.038945  -3.266047  48.274494  49.002491  -53.570876  24.424821  0.000000
2.300000  0.000000  0.000000  0.000000  -34.818597  1.780709  15.342885  66.678348  8.914715  -3.675312  48.046668  48.335678  -53.778495  24.714946  0.000000
